<svg viewBox="0 0 1440 790" width="1440" height="790" xmlns="http://www.w3.org/2000/svg" role="img" aria-label="Filing Analysis architecture">
<defs>
 <marker id="ar" viewBox="0 0 10 10" refX="8.8" refY="5" markerWidth="7.5" markerHeight="7.5" orient="auto-start-reverse"><path d="M0,0 L10,5 L0,10 z" fill="#5B9BD5"/></marker>
</defs>
<rect x="0" y="0" width="1440" height="790" fill="#FFFFFF"/>
<rect x="320" y="57" width="220" height="66" rx="11" fill="#15324C"/><text x="323" y="48" text-anchor="start" font-family="Carlito,Calibri,Arial,sans-serif" font-size="12" font-weight="700" letter-spacing="1.4" fill="#6E8BA6">INPUT</text><text x="430" y="95.95" text-anchor="middle" font-family="Carlito,Calibri,Arial,sans-serif" font-size="17" font-weight="700" fill="#FFFFFF">Filing + Form</text><rect x="280" y="204" width="300" height="72" rx="11" fill="#15324C"/><text x="283" y="195" text-anchor="start" font-family="Carlito,Calibri,Arial,sans-serif" font-size="12" font-weight="700" letter-spacing="1.4" fill="#6E8BA6">ORCHESTRATOR</text><text x="430" y="238" text-anchor="middle" font-family="Carlito,Calibri,Arial,sans-serif" font-size="17" font-weight="700" fill="#FFFFFF">Orchestrator</text><text x="430" y="256" text-anchor="middle" font-family="Carlito,Calibri,Arial,sans-serif" font-size="12.5" fill="#ABC4DC">run.py</text><rect x="1090" y="80" width="280" height="80" rx="11" fill="#15324C" stroke="#5B9BD5" stroke-width="3"/><text x="1093" y="71" text-anchor="start" font-family="Carlito,Calibri,Arial,sans-serif" font-size="12" font-weight="700" letter-spacing="1.4" fill="#6E8BA6">OUTPUT</text><text x="1230" y="117" text-anchor="middle" font-family="Carlito,Calibri,Arial,sans-serif" font-size="17" font-weight="700" fill="#FFFFFF">Filing</text><text x="1230" y="136" text-anchor="middle" font-family="Carlito,Calibri,Arial,sans-serif" font-size="17" font-weight="700" fill="#FFFFFF">Intelligence Brief</text><rect x="135" y="373" width="210" height="64" rx="11" fill="#15324C"/><text x="138" y="364" text-anchor="start" font-family="Carlito,Calibri,Arial,sans-serif" font-size="12" font-weight="700" letter-spacing="1.4" fill="#6E8BA6">AGENT</text><text x="240" y="410.95" text-anchor="middle" font-family="Carlito,Calibri,Arial,sans-serif" font-size="17" font-weight="700" fill="#FFFFFF">Retrieval</text><rect x="555" y="373" width="210" height="64" rx="11" fill="#15324C"/><text x="558" y="364" text-anchor="start" font-family="Carlito,Calibri,Arial,sans-serif" font-size="12" font-weight="700" letter-spacing="1.4" fill="#6E8BA6">AGENT</text><text x="660" y="410.95" text-anchor="middle" font-family="Carlito,Calibri,Arial,sans-serif" font-size="17" font-weight="700" fill="#FFFFFF">Change</text><rect x="1075" y="373" width="210" height="64" rx="11" fill="#15324C"/><text x="1078" y="364" text-anchor="start" font-family="Carlito,Calibri,Arial,sans-serif" font-size="12" font-weight="700" letter-spacing="1.4" fill="#6E8BA6">AGENT</text><text x="1180" y="410.95" text-anchor="middle" font-family="Carlito,Calibri,Arial,sans-serif" font-size="17" font-weight="700" fill="#FFFFFF">Risk</text><rect x="148" y="550" width="184" height="50" rx="11" fill="#27496B"/><text x="151" y="541" text-anchor="start" font-family="Carlito,Calibri,Arial,sans-serif" font-size="12" font-weight="700" letter-spacing="1.4" fill="#6E8BA6">SKILL</text><text x="240" y="579.725" text-anchor="middle" font-family="Carlito,Calibri,Arial,sans-serif" font-size="13.5" font-weight="700" fill="#FFFFFF">filing-fetcher</text><rect x="468" y="550" width="184" height="50" rx="11" fill="#27496B"/><text x="471" y="541" text-anchor="start" font-family="Carlito,Calibri,Arial,sans-serif" font-size="12" font-weight="700" letter-spacing="1.4" fill="#6E8BA6">SKILL</text><text x="560" y="579.725" text-anchor="middle" font-family="Carlito,Calibri,Arial,sans-serif" font-size="13.5" font-weight="700" fill="#FFFFFF">filing-change-detector</text><rect x="998" y="550" width="184" height="50" rx="11" fill="#27496B"/><text x="1001" y="541" text-anchor="start" font-family="Carlito,Calibri,Arial,sans-serif" font-size="12" font-weight="700" letter-spacing="1.4" fill="#6E8BA6">SKILL</text><text x="1090" y="579.725" text-anchor="middle" font-family="Carlito,Calibri,Arial,sans-serif" font-size="13.5" font-weight="700" fill="#FFFFFF">moat-analyzer</text><rect x="1198" y="550" width="184" height="50" rx="11" fill="#27496B"/><text x="1201" y="541" text-anchor="start" font-family="Carlito,Calibri,Arial,sans-serif" font-size="12" font-weight="700" letter-spacing="1.4" fill="#6E8BA6">SKILL</text><text x="1290" y="579.725" text-anchor="middle" font-family="Carlito,Calibri,Arial,sans-serif" font-size="13.5" font-weight="700" fill="#FFFFFF">news-fetcher</text><polygon points="695,575 725,543 815,543 845,575 815,607 725,607" fill="#2E6CA0"/><text x="725" y="534" text-anchor="start" font-family="Carlito,Calibri,Arial,sans-serif" font-size="12" font-weight="700" letter-spacing="1.4" fill="#6E8BA6">ROUTER</text><text x="770" y="580" text-anchor="middle" font-family="Carlito,Calibri,Arial,sans-serif" font-size="15" font-weight="700" fill="#FFFFFF">needs model?</text><rect x="672" y="665" width="196" height="50" rx="11" fill="#3B6FA0"/><text x="675" y="656" text-anchor="start" font-family="Carlito,Calibri,Arial,sans-serif" font-size="12" font-weight="700" letter-spacing="1.4" fill="#6E8BA6">MODEL</text><text x="770" y="695.075" text-anchor="middle" font-family="Carlito,Calibri,Arial,sans-serif" font-size="14.5" font-weight="700" fill="#FFFFFF">Label changes</text><line x1="430" y1="123" x2="430" y2="201" stroke="#5B9BD5" stroke-width="2.6" marker-end="url(#ar)"/><line x1="430" y1="276" x2="242" y2="373" stroke="#5B9BD5" stroke-width="2.6" marker-end="url(#ar)" marker-start="url(#ar)"/><line x1="430" y1="276" x2="660" y2="373" stroke="#5B9BD5" stroke-width="2.6" marker-end="url(#ar)" marker-start="url(#ar)"/><line x1="430" y1="276" x2="1178" y2="373" stroke="#5B9BD5" stroke-width="2.6" marker-end="url(#ar)" marker-start="url(#ar)"/><line x1="583" y1="222" x2="1088" y2="140" stroke="#5B9BD5" stroke-width="2.6" marker-end="url(#ar)"/><line x1="240" y1="549" x2="240" y2="439" stroke="#5B9BD5" stroke-width="2.6" marker-end="url(#ar)"/><line x1="1090" y1="549" x2="1145" y2="439" stroke="#5B9BD5" stroke-width="2.6" marker-end="url(#ar)"/><line x1="1290" y1="549" x2="1215" y2="439" stroke="#5B9BD5" stroke-width="2.6" marker-end="url(#ar)"/><line x1="652" y1="575" x2="693" y2="575" stroke="#5B9BD5" stroke-width="2.6" marker-end="url(#ar)"/><line x1="770" y1="609" x2="770" y2="663" stroke="#5B9BD5" stroke-width="2.6" marker-end="url(#ar)"/><path d="M732,668 C 560,642 556,500 648,442" fill="none" stroke="#5B9BD5" stroke-width="2.4" marker-end="url(#ar)"/><line x1="748" y1="546" x2="684" y2="439" stroke="#5B9BD5" stroke-width="2.6" marker-end="url(#ar)"/><text x="792" y="645" text-anchor="middle" font-family="Carlito,Calibri,Arial,sans-serif" font-size="12.5" font-style="italic" fill="#6E8BA6">yes</text><text x="700" y="505" text-anchor="middle" font-family="Carlito,Calibri,Arial,sans-serif" font-size="12.5" font-style="italic" fill="#6E8BA6">no</text>
</svg>