<svg viewBox="0 0 1360 760" width="1360" height="760" xmlns="http://www.w3.org/2000/svg" role="img" aria-label="Portfolio Monitoring architecture">
<defs>
 <marker id="ar" viewBox="0 0 10 10" refX="8.8" refY="5" markerWidth="7.5" markerHeight="7.5" orient="auto-start-reverse"><path d="M0,0 L10,5 L0,10 z" fill="#5B9BD5"/></marker>
</defs>
<rect x="0" y="0" width="1360" height="760" fill="#FFFFFF"/>
<rect x="292.5" y="57" width="235" height="66" rx="11" fill="#15324C"/><text x="295.5" y="48" text-anchor="start" font-family="Carlito,Calibri,Arial,sans-serif" font-size="12" font-weight="700" letter-spacing="1.4" fill="#6E8BA6">INPUT</text><text x="410" y="95.95" text-anchor="middle" font-family="Carlito,Calibri,Arial,sans-serif" font-size="17" font-weight="700" fill="#FFFFFF">Positions + Limits</text><rect x="260" y="204" width="300" height="72" rx="11" fill="#15324C"/><text x="263" y="195" text-anchor="start" font-family="Carlito,Calibri,Arial,sans-serif" font-size="12" font-weight="700" letter-spacing="1.4" fill="#6E8BA6">ORCHESTRATOR</text><text x="410" y="238" text-anchor="middle" font-family="Carlito,Calibri,Arial,sans-serif" font-size="17" font-weight="700" fill="#FFFFFF">Orchestrator</text><text x="410" y="256" text-anchor="middle" font-family="Carlito,Calibri,Arial,sans-serif" font-size="12.5" fill="#ABC4DC">run.py</text><polygon points="732,120 767.2,83 872.8,83 908,120 872.8,157 767.2,157" fill="#2E6CA0"/><text x="767.2" y="74" text-anchor="start" font-family="Carlito,Calibri,Arial,sans-serif" font-size="12" font-weight="700" letter-spacing="1.4" fill="#6E8BA6">ROUTER</text><text x="820" y="118" text-anchor="middle" font-family="Carlito,Calibri,Arial,sans-serif" font-size="15.5" font-weight="700" fill="#FFFFFF">Sort</text><text x="820" y="135" text-anchor="middle" font-family="Carlito,Calibri,Arial,sans-serif" font-size="12" fill="#FFFFFF">red / yellow / green</text><rect x="1040" y="40" width="240" height="64" rx="11" fill="#15324C" stroke="#5B9BD5" stroke-width="3"/><text x="1043" y="31" text-anchor="start" font-family="Carlito,Calibri,Arial,sans-serif" font-size="12" font-weight="700" letter-spacing="1.4" fill="#6E8BA6">OUTPUT</text><text x="1160" y="77.95" text-anchor="middle" font-family="Carlito,Calibri,Arial,sans-serif" font-size="17" font-weight="700" fill="#FFFFFF">Status Report</text><rect x="1040" y="180" width="240" height="64" rx="11" fill="#15324C"/><text x="1043" y="171" text-anchor="start" font-family="Carlito,Calibri,Arial,sans-serif" font-size="12" font-weight="700" letter-spacing="1.4" fill="#6E8BA6">OUTPUT</text><text x="1160" y="210" text-anchor="middle" font-family="Carlito,Calibri,Arial,sans-serif" font-size="17" font-weight="700" fill="#FFFFFF">Audit Log</text><text x="1160" y="228" text-anchor="middle" font-family="Carlito,Calibri,Arial,sans-serif" font-size="12.5" fill="#ABC4DC">audit-logger</text><rect x="135" y="377" width="210" height="66" rx="11" fill="#15324C"/><text x="138" y="368" text-anchor="start" font-family="Carlito,Calibri,Arial,sans-serif" font-size="12" font-weight="700" letter-spacing="1.4" fill="#6E8BA6">AGENT</text><text x="240" y="415.95" text-anchor="middle" font-family="Carlito,Calibri,Arial,sans-serif" font-size="17" font-weight="700" fill="#FFFFFF">Position</text><rect x="565" y="377" width="210" height="66" rx="11" fill="#15324C"/><text x="568" y="368" text-anchor="start" font-family="Carlito,Calibri,Arial,sans-serif" font-size="12" font-weight="700" letter-spacing="1.4" fill="#6E8BA6">AGENT</text><text x="670" y="415.95" text-anchor="middle" font-family="Carlito,Calibri,Arial,sans-serif" font-size="17" font-weight="700" fill="#FFFFFF">Exposure</text><rect x="975" y="377" width="210" height="66" rx="11" fill="#15324C"/><text x="978" y="368" text-anchor="start" font-family="Carlito,Calibri,Arial,sans-serif" font-size="12" font-weight="700" letter-spacing="1.4" fill="#6E8BA6">AGENT</text><text x="1080" y="415.95" text-anchor="middle" font-family="Carlito,Calibri,Arial,sans-serif" font-size="17" font-weight="700" fill="#FFFFFF">Thesis</text><rect x="58" y="565" width="184" height="50" rx="11" fill="#27496B"/><text x="61" y="556" text-anchor="start" font-family="Carlito,Calibri,Arial,sans-serif" font-size="12" font-weight="700" letter-spacing="1.4" fill="#6E8BA6">SKILL</text><text x="150" y="594.725" text-anchor="middle" font-family="Carlito,Calibri,Arial,sans-serif" font-size="13.5" font-weight="700" fill="#FFFFFF">price-fetcher</text><rect x="258" y="565" width="184" height="50" rx="11" fill="#27496B"/><text x="261" y="556" text-anchor="start" font-family="Carlito,Calibri,Arial,sans-serif" font-size="12" font-weight="700" letter-spacing="1.4" fill="#6E8BA6">SKILL</text><text x="350" y="594.725" text-anchor="middle" font-family="Carlito,Calibri,Arial,sans-serif" font-size="13.5" font-weight="700" fill="#FFFFFF">rebalance-checker</text><rect x="483" y="565" width="184" height="50" rx="11" fill="#27496B"/><text x="486" y="556" text-anchor="start" font-family="Carlito,Calibri,Arial,sans-serif" font-size="12" font-weight="700" letter-spacing="1.4" fill="#6E8BA6">SKILL</text><text x="575" y="594.725" text-anchor="middle" font-family="Carlito,Calibri,Arial,sans-serif" font-size="13.5" font-weight="700" fill="#FFFFFF">risk-limit-checker</text><rect x="683" y="565" width="184" height="50" rx="11" fill="#27496B"/><text x="686" y="556" text-anchor="start" font-family="Carlito,Calibri,Arial,sans-serif" font-size="12" font-weight="700" letter-spacing="1.4" fill="#6E8BA6">SKILL</text><text x="775" y="594.725" text-anchor="middle" font-family="Carlito,Calibri,Arial,sans-serif" font-size="13.5" font-weight="700" fill="#FFFFFF">correlation-analyzer</text><rect x="918" y="565" width="184" height="50" rx="11" fill="#27496B"/><text x="921" y="556" text-anchor="start" font-family="Carlito,Calibri,Arial,sans-serif" font-size="12" font-weight="700" letter-spacing="1.4" fill="#6E8BA6">SKILL</text><text x="1010" y="594.725" text-anchor="middle" font-family="Carlito,Calibri,Arial,sans-serif" font-size="13.5" font-weight="700" fill="#FFFFFF">kpi-tracker</text><rect x="1155" y="564" width="180" height="52" rx="11" fill="#15324C"/><text x="1158" y="555" text-anchor="start" font-family="Carlito,Calibri,Arial,sans-serif" font-size="12" font-weight="700" letter-spacing="1.4" fill="#6E8BA6">INPUT</text><text x="1245" y="588" text-anchor="middle" font-family="Carlito,Calibri,Arial,sans-serif" font-size="13.5" font-weight="700" fill="#FFFFFF">Thesis Baseline</text><text x="1245" y="606" text-anchor="middle" font-family="Carlito,Calibri,Arial,sans-serif" font-size="11" fill="#ABC4DC">thesis-recorder</text><line x1="410" y1="123" x2="410" y2="201" stroke="#5B9BD5" stroke-width="2.6" marker-end="url(#ar)"/><line x1="410" y1="276" x2="242" y2="377" stroke="#5B9BD5" stroke-width="2.6" marker-end="url(#ar)" marker-start="url(#ar)"/><line x1="410" y1="276" x2="670" y2="377" stroke="#5B9BD5" stroke-width="2.6" marker-end="url(#ar)" marker-start="url(#ar)"/><line x1="410" y1="276" x2="1078" y2="377" stroke="#5B9BD5" stroke-width="2.6" marker-end="url(#ar)" marker-start="url(#ar)"/><line x1="150" y1="564" x2="213" y2="445" stroke="#5B9BD5" stroke-width="2.6" marker-end="url(#ar)"/><line x1="350" y1="564" x2="267" y2="445" stroke="#5B9BD5" stroke-width="2.6" marker-end="url(#ar)"/><line x1="575" y1="564" x2="643" y2="445" stroke="#5B9BD5" stroke-width="2.6" marker-end="url(#ar)"/><line x1="775" y1="564" x2="697" y2="445" stroke="#5B9BD5" stroke-width="2.6" marker-end="url(#ar)"/><line x1="1010" y1="564" x2="1077" y2="445" stroke="#5B9BD5" stroke-width="2.6" marker-end="url(#ar)"/><line x1="1153" y1="590" x2="1110" y2="590" stroke="#5B9BD5" stroke-width="2.6" stroke-dasharray="6 5" marker-end="url(#ar)"/><line x1="563" y1="220" x2="734" y2="138" stroke="#5B9BD5" stroke-width="2.6" marker-end="url(#ar)"/><line x1="906" y1="103" x2="1038" y2="84" stroke="#5B9BD5" stroke-width="2.6" marker-end="url(#ar)"/><line x1="906" y1="140" x2="1038" y2="205" stroke="#5B9BD5" stroke-width="2.6" marker-end="url(#ar)"/>
</svg>