<svg viewBox="0 0 1340 740" width="1340" height="740" xmlns="http://www.w3.org/2000/svg" role="img" aria-label="Idea Sourcing architecture">
<defs>
 <marker id="ar" viewBox="0 0 10 10" refX="8.8" refY="5" markerWidth="7.5" markerHeight="7.5" orient="auto-start-reverse"><path d="M0,0 L10,5 L0,10 z" fill="#5B9BD5"/></marker>
</defs>
<rect x="0" y="0" width="1340" height="740" fill="#FFFFFF"/>
<rect x="315" y="57" width="230" height="66" rx="11" fill="#15324C"/><text x="318" y="48" text-anchor="start" font-family="Carlito,Calibri,Arial,sans-serif" font-size="12" font-weight="700" letter-spacing="1.4" fill="#6E8BA6">INPUT</text><text x="430" y="95.95" text-anchor="middle" font-family="Carlito,Calibri,Arial,sans-serif" font-size="17" font-weight="700" fill="#FFFFFF">User Mandate</text><rect x="280" y="204" width="300" height="72" rx="11" fill="#15324C"/><text x="283" y="195" text-anchor="start" font-family="Carlito,Calibri,Arial,sans-serif" font-size="12" font-weight="700" letter-spacing="1.4" fill="#6E8BA6">ORCHESTRATOR</text><text x="430" y="238" text-anchor="middle" font-family="Carlito,Calibri,Arial,sans-serif" font-size="17" font-weight="700" fill="#FFFFFF">Orchestrator</text><text x="430" y="256" text-anchor="middle" font-family="Carlito,Calibri,Arial,sans-serif" font-size="12.5" fill="#ABC4DC">run.py</text><rect x="1015" y="83" width="250" height="74" rx="11" fill="#15324C" stroke="#5B9BD5" stroke-width="3"/><text x="1018" y="74" text-anchor="start" font-family="Carlito,Calibri,Arial,sans-serif" font-size="12" font-weight="700" letter-spacing="1.4" fill="#6E8BA6">OUTPUT</text><text x="1140" y="125.95" text-anchor="middle" font-family="Carlito,Calibri,Arial,sans-serif" font-size="17" font-weight="700" fill="#FFFFFF">Ranked Shortlist</text><rect x="135" y="377" width="210" height="66" rx="11" fill="#15324C"/><text x="138" y="368" text-anchor="start" font-family="Carlito,Calibri,Arial,sans-serif" font-size="12" font-weight="700" letter-spacing="1.4" fill="#6E8BA6">AGENT</text><text x="240" y="415.95" text-anchor="middle" font-family="Carlito,Calibri,Arial,sans-serif" font-size="17" font-weight="700" fill="#FFFFFF">1 · Screener</text><rect x="565" y="377" width="210" height="66" rx="11" fill="#15324C"/><text x="568" y="368" text-anchor="start" font-family="Carlito,Calibri,Arial,sans-serif" font-size="12" font-weight="700" letter-spacing="1.4" fill="#6E8BA6">AGENT</text><text x="670" y="415.95" text-anchor="middle" font-family="Carlito,Calibri,Arial,sans-serif" font-size="17" font-weight="700" fill="#FFFFFF">2 · Catalyst</text><rect x="995" y="377" width="210" height="66" rx="11" fill="#15324C"/><text x="998" y="368" text-anchor="start" font-family="Carlito,Calibri,Arial,sans-serif" font-size="12" font-weight="700" letter-spacing="1.4" fill="#6E8BA6">AGENT</text><text x="1100" y="415.95" text-anchor="middle" font-family="Carlito,Calibri,Arial,sans-serif" font-size="17" font-weight="700" fill="#FFFFFF">3 · Thesis</text><rect x="58" y="565" width="184" height="50" rx="11" fill="#27496B"/><text x="61" y="556" text-anchor="start" font-family="Carlito,Calibri,Arial,sans-serif" font-size="12" font-weight="700" letter-spacing="1.4" fill="#6E8BA6">SKILL</text><text x="150" y="594.725" text-anchor="middle" font-family="Carlito,Calibri,Arial,sans-serif" font-size="13.5" font-weight="700" fill="#FFFFFF">universe-screener</text><rect x="253" y="565" width="184" height="50" rx="11" fill="#27496B"/><text x="256" y="556" text-anchor="start" font-family="Carlito,Calibri,Arial,sans-serif" font-size="12" font-weight="700" letter-spacing="1.4" fill="#6E8BA6">SKILL</text><text x="345" y="594.725" text-anchor="middle" font-family="Carlito,Calibri,Arial,sans-serif" font-size="13.5" font-weight="700" fill="#FFFFFF">fundamentals-fetcher</text><rect x="483" y="565" width="184" height="50" rx="11" fill="#27496B"/><text x="486" y="556" text-anchor="start" font-family="Carlito,Calibri,Arial,sans-serif" font-size="12" font-weight="700" letter-spacing="1.4" fill="#6E8BA6">SKILL</text><text x="575" y="594.725" text-anchor="middle" font-family="Carlito,Calibri,Arial,sans-serif" font-size="13.5" font-weight="700" fill="#FFFFFF">catalyst-flagger</text><rect x="678" y="565" width="184" height="50" rx="11" fill="#27496B"/><text x="681" y="556" text-anchor="start" font-family="Carlito,Calibri,Arial,sans-serif" font-size="12" font-weight="700" letter-spacing="1.4" fill="#6E8BA6">SKILL</text><text x="770" y="594.725" text-anchor="middle" font-family="Carlito,Calibri,Arial,sans-serif" font-size="13.5" font-weight="700" fill="#FFFFFF">news-fetcher</text><rect x="918" y="565" width="184" height="50" rx="11" fill="#27496B"/><text x="921" y="556" text-anchor="start" font-family="Carlito,Calibri,Arial,sans-serif" font-size="12" font-weight="700" letter-spacing="1.4" fill="#6E8BA6">SKILL</text><text x="1010" y="594.725" text-anchor="middle" font-family="Carlito,Calibri,Arial,sans-serif" font-size="13.5" font-weight="700" fill="#FFFFFF">dcf-valuation</text><rect x="1108" y="565" width="184" height="50" rx="11" fill="#27496B"/><text x="1111" y="556" text-anchor="start" font-family="Carlito,Calibri,Arial,sans-serif" font-size="12" font-weight="700" letter-spacing="1.4" fill="#6E8BA6">SKILL</text><text x="1200" y="594.725" text-anchor="middle" font-family="Carlito,Calibri,Arial,sans-serif" font-size="13.5" font-weight="700" fill="#FFFFFF">comps-builder</text><line x1="430" y1="123" x2="430" y2="201" stroke="#5B9BD5" stroke-width="2.6" marker-end="url(#ar)"/><line x1="430" y1="276" x2="242" y2="377" stroke="#5B9BD5" stroke-width="2.6" marker-end="url(#ar)" marker-start="url(#ar)"/><line x1="430" y1="276" x2="670" y2="377" stroke="#5B9BD5" stroke-width="2.6" marker-end="url(#ar)" marker-start="url(#ar)"/><line x1="430" y1="276" x2="1098" y2="377" stroke="#5B9BD5" stroke-width="2.6" marker-end="url(#ar)" marker-start="url(#ar)"/><line x1="345" y1="410" x2="563" y2="410" stroke="#5B9BD5" stroke-width="2.6" marker-end="url(#ar)"/><line x1="775" y1="410" x2="993" y2="410" stroke="#5B9BD5" stroke-width="2.6" marker-end="url(#ar)"/><line x1="150" y1="564" x2="213" y2="445" stroke="#5B9BD5" stroke-width="2.6" marker-end="url(#ar)"/><line x1="345" y1="564" x2="267" y2="445" stroke="#5B9BD5" stroke-width="2.6" marker-end="url(#ar)"/><line x1="575" y1="564" x2="643" y2="445" stroke="#5B9BD5" stroke-width="2.6" marker-end="url(#ar)"/><line x1="770" y1="564" x2="697" y2="445" stroke="#5B9BD5" stroke-width="2.6" marker-end="url(#ar)"/><line x1="1010" y1="564" x2="1073" y2="445" stroke="#5B9BD5" stroke-width="2.6" marker-end="url(#ar)"/><line x1="1200" y1="564" x2="1127" y2="445" stroke="#5B9BD5" stroke-width="2.6" marker-end="url(#ar)"/><line x1="583" y1="222" x2="1012" y2="138" stroke="#5B9BD5" stroke-width="2.6" marker-end="url(#ar)"/>
</svg>